<svg width="85" height="69" viewBox="0 0 85 69" fill="none" xmlns="http://www.w3.org/2000/svg">
<rect x="4.24567" y="59.5514" width="4.245" height="4.245" fill="#156355"/>
<rect x="8.48981" y="59.5514" width="4.245" height="4.245" fill="#082520"/>
<rect x="8.48981" y="63.7964" width="4.245" height="4.245" fill="#082520"/>
<rect x="4.24567" y="63.7964" width="4.245" height="4.245" fill="#082520"/>
<rect x="0.00012207" y="63.7964" width="4.245" height="4.245" fill="#082520"/>
<rect x="0.00012207" y="59.5514" width="4.245" height="4.245" fill="#0E3F36"/>
<rect x="8.48981" y="55.3065" width="4.245" height="4.245" fill="#684E1E"/>
<rect x="12.7354" y="51.0614" width="4.245" height="4.245" fill="#896727"/>
<rect x="16.9809" y="51.0614" width="4.245" height="4.245" fill="#281E0B"/>
<rect x="12.7354" y="46.8165" width="4.245" height="4.245" fill="#493615"/>
<rect x="16.9809" y="42.5714" width="4.245" height="4.245" fill="#0E3F36"/>
<rect x="21.2246" y="42.5714" width="4.245" height="4.245" fill="#156355"/>
<rect x="25.4702" y="42.5714" width="4.245" height="4.245" fill="#0E3F36"/>
<rect x="25.4702" y="46.8165" width="4.245" height="4.245" fill="#0E3F36"/>
<rect x="29.7158" y="46.8165" width="4.245" height="4.245" fill="#0E3F36"/>
<rect x="29.7158" y="51.0614" width="4.245" height="4.245" fill="#082520"/>
<rect x="38.2036" y="51.0614" width="4.245" height="4.245" fill="#082520"/>
<rect x="38.2036" y="55.3065" width="4.245" height="4.245" fill="#082520"/>
<rect x="33.9598" y="55.3065" width="4.245" height="4.245" fill="#082520"/>
<rect x="33.9598" y="51.0614" width="4.245" height="4.245" fill="#0E3F36"/>
<rect x="33.9598" y="46.8165" width="4.245" height="4.245" fill="#082520"/>
<rect x="29.7158" y="42.5714" width="4.245" height="4.245" fill="#082520"/>
<rect x="33.9598" y="38.3264" width="4.245" height="4.245" fill="#082520"/>
<rect x="38.2036" y="34.0814" width="4.245" height="4.245" fill="#082520"/>
<rect x="42.4492" y="29.8364" width="4.245" height="4.245" fill="#082520"/>
<rect x="46.6965" y="25.5914" width="4.245" height="4.245" fill="#082520"/>
<rect x="50.9388" y="21.3464" width="4.245" height="4.245" fill="#082520"/>
<rect x="55.1844" y="17.1014" width="4.245" height="4.245" fill="#082520"/>
<rect x="59.4299" y="12.8565" width="4.245" height="4.245" fill="#082520"/>
<rect x="63.6755" y="8.61145" width="4.245" height="4.245" fill="#082520"/>
<rect x="63.6755" y="4.36639" width="4.245" height="4.245" fill="#082520"/>
<rect x="63.6755" y="0.121399" width="4.245" height="4.245" fill="#0E3F36"/>
<rect x="59.4299" y="0.121399" width="4.245" height="4.245" fill="#0E3F36"/>
<rect x="55.1844" y="0.121399" width="4.245" height="4.245" fill="#0E3F36"/>
<rect x="50.9388" y="4.36639" width="4.245" height="4.245" fill="#0E3F36"/>
<rect x="46.6965" y="8.61145" width="4.245" height="4.245" fill="#0E3F36"/>
<rect x="42.4492" y="12.8565" width="4.245" height="4.245" fill="#0E3F36"/>
<rect x="38.2036" y="17.1014" width="4.245" height="4.245" fill="#0E3F36"/>
<rect x="33.9598" y="21.3464" width="4.245" height="4.245" fill="#0E3F36"/>
<rect x="29.7158" y="25.5914" width="4.245" height="4.245" fill="#0E3F36"/>
<rect x="25.4702" y="29.8364" width="4.245" height="4.245" fill="#0E3F36"/>
<rect x="21.2246" y="38.3264" width="4.245" height="4.245" fill="#1E8A77"/>
<rect x="16.9809" y="38.3264" width="4.245" height="4.245" fill="#1E8A77"/>
<rect x="16.9809" y="34.0814" width="4.245" height="4.245" fill="#1E8A77"/>
<rect x="16.9809" y="29.8364" width="4.245" height="4.245" fill="#0E3F36"/>
<rect x="12.7354" y="29.8364" width="4.245" height="4.245" fill="#156355"/>
<rect x="12.7354" y="25.5914" width="4.245" height="4.245" fill="#0E3F36"/>
<rect x="8.48981" y="25.5914" width="4.245" height="4.245" fill="#0E3F36"/>
<rect x="8.48981" y="29.8364" width="4.245" height="4.245" fill="#0E3F36"/>
<rect x="12.7354" y="34.0814" width="4.245" height="4.245" fill="#0E3F36"/>
<rect x="12.7354" y="38.3264" width="4.245" height="4.245" fill="#0E3F36"/>
<rect x="29.7158" y="38.3264" width="4.245" height="4.245" fill="#33EBCB"/>
<rect x="25.4702" y="38.3264" width="4.245" height="4.245" fill="#156355"/>
<rect x="25.4702" y="34.0814" width="4.245" height="4.245" fill="#33EBCB"/>
<rect x="29.7158" y="34.0814" width="4.245" height="4.245" fill="#156355"/>
<rect x="33.9598" y="34.0814" width="4.245" height="4.245" fill="#33EBCB"/>
<rect x="33.9598" y="29.8364" width="4.245" height="4.245" fill="#2BC7AC"/>
<rect x="33.9598" y="25.5914" width="4.245" height="4.245" fill="#33EBCB"/>
<rect x="29.7158" y="29.8364" width="4.245" height="4.245" fill="#33EBCB"/>
<rect x="38.2036" y="29.8364" width="4.245" height="4.245" fill="#33EBCB"/>
<rect x="38.2036" y="25.5914" width="4.245" height="4.245" fill="#2BC7AC"/>
<rect x="38.2036" y="21.3464" width="4.245" height="4.245" fill="#A4FDF0"/>
<rect x="42.4492" y="17.1014" width="4.245" height="4.245" fill="#A4FDF0"/>
<rect x="46.6965" y="17.1014" width="4.245" height="4.245" fill="#2BC7AC"/>
<rect x="46.6965" y="12.8565" width="4.245" height="4.245" fill="#A4FDF0"/>
<rect x="50.9388" y="12.8565" width="4.245" height="4.245" fill="#2BC7AC"/>
<rect x="50.9388" y="8.61145" width="4.245" height="4.245" fill="#A4FDF0"/>
<rect x="55.1844" y="8.61145" width="4.245" height="4.245" fill="#2BC7AC"/>
<rect x="55.1844" y="4.36639" width="4.245" height="4.245" fill="#A4FDF0"/>
<rect x="59.4299" y="4.36639" width="4.245" height="4.245" fill="#A4FDF0"/>
<rect x="59.4299" y="8.61145" width="4.245" height="4.245" fill="#A4FDF0"/>
<rect x="55.1844" y="12.8565" width="4.245" height="4.245" fill="#A4FDF0"/>
<rect x="50.9388" y="17.1014" width="4.245" height="4.245" fill="#33EBCB"/>
<rect x="46.6965" y="21.3464" width="4.245" height="4.245" fill="#33EBCB"/>
<rect x="21.2246" y="34.0814" width="4.245" height="4.245" fill="#082520"/>
<rect x="42.4492" y="25.5914" width="4.245" height="4.245" fill="#33EBCB"/>
<rect x="42.4492" y="21.3464" width="4.245" height="4.245" fill="#2BC7AC"/>
<rect x="25.4702" y="51.0614" width="4.245" height="4.245" fill="#082520"/>
<rect x="21.2246" y="46.8165" width="4.245" height="4.245" fill="#082520"/>
<rect x="16.9809" y="46.8165" width="4.245" height="4.245" fill="#684E1E"/>
<rect x="12.7354" y="55.3065" width="4.245" height="4.245" fill="#281E0B"/>
<rect x="8.48981" y="51.0614" width="4.245" height="4.245" fill="#493615"/>
<rect x="4.24567" y="55.3065" width="4.245" height="4.245" fill="#0E3F36"/>
<rect x="0.00012207" y="55.3065" width="4.245" height="4.245" fill="#0E3F36"/>
<rect width="4.245" height="4.245" transform="matrix(-1 0 0 1 80.6193 59.5514)" fill="#156355"/>
<rect width="4.245" height="4.245" transform="matrix(-1 0 0 1 76.3752 59.5514)" fill="#082520"/>
<rect width="4.245" height="4.245" transform="matrix(-1 0 0 1 76.3752 63.7964)" fill="#082520"/>
<rect width="4.245" height="4.245" transform="matrix(-1 0 0 1 80.6193 63.7964)" fill="#082520"/>
<rect width="4.245" height="4.245" transform="matrix(-1 0 0 1 84.8649 63.7964)" fill="#082520"/>
<rect width="4.245" height="4.245" transform="matrix(-1 0 0 1 84.8649 59.5514)" fill="#0E3F36"/>
<rect width="4.245" height="4.245" transform="matrix(-1 0 0 1 76.3752 55.3065)" fill="#684E1E"/>
<rect width="4.245" height="4.245" transform="matrix(-1 0 0 1 72.1296 51.0614)" fill="#896727"/>
<rect width="4.245" height="4.245" transform="matrix(-1 0 0 1 67.8841 51.0614)" fill="#281E0B"/>
<rect width="4.245" height="4.245" transform="matrix(-1 0 0 1 72.1296 46.8165)" fill="#493615"/>
<rect width="4.245" height="4.245" transform="matrix(-1 0 0 1 67.8841 42.5714)" fill="#0E3F36"/>
<rect width="4.245" height="4.245" transform="matrix(-1 0 0 1 63.6403 42.5714)" fill="#156355"/>
<rect width="4.245" height="4.245" transform="matrix(-1 0 0 1 59.3948 42.5714)" fill="#0E3F36"/>
<rect width="4.245" height="4.245" transform="matrix(-1 0 0 1 59.3948 46.8165)" fill="#0E3F36"/>
<rect width="4.245" height="4.245" transform="matrix(-1 0 0 1 55.1492 46.8165)" fill="#0E3F36"/>
<rect width="4.245" height="4.245" transform="matrix(-1 0 0 1 55.1492 51.0614)" fill="#082520"/>
<rect width="4.245" height="4.245" transform="matrix(-1 0 0 1 46.6614 51.0614)" fill="#082520"/>
<rect width="4.245" height="4.245" transform="matrix(-1 0 0 1 46.6614 55.3065)" fill="#082520"/>
<rect width="4.245" height="4.245" transform="matrix(-1 0 0 1 50.9052 55.3065)" fill="#082520"/>
<rect width="4.245" height="4.245" transform="matrix(-1 0 0 1 50.9052 51.0614)" fill="#0E3F36"/>
<rect width="4.245" height="4.245" transform="matrix(-1 0 0 1 50.9052 46.8165)" fill="#082520"/>
<rect width="4.245" height="4.245" transform="matrix(-1 0 0 1 55.1492 42.5714)" fill="#082520"/>
<rect width="4.245" height="4.245" transform="matrix(-1 0 0 1 50.9052 38.3264)" fill="#082520"/>
<rect width="4.245" height="4.245" transform="matrix(-1 0 0 1 46.6614 34.0814)" fill="#082520"/>
<rect width="4.245" height="4.245" transform="matrix(-1 0 0 1 42.4144 29.8364)" fill="#082520"/>
<rect width="4.245" height="4.245" transform="matrix(-1 0 0 1 38.1685 25.5914)" fill="#082520"/>
<rect width="4.245" height="4.245" transform="matrix(-1 0 0 1 33.9261 21.3464)" fill="#082520"/>
<rect width="4.245" height="4.245" transform="matrix(-1 0 0 1 29.6806 17.1014)" fill="#082520"/>
<rect width="4.245" height="4.245" transform="matrix(-1 0 0 1 25.4351 12.8565)" fill="#082520"/>
<rect width="4.245" height="4.245" transform="matrix(-1 0 0 1 21.1895 8.61145)" fill="#082520"/>
<rect width="4.245" height="4.245" transform="matrix(-1 0 0 1 21.1895 4.36639)" fill="#082520"/>
<rect width="4.245" height="4.245" transform="matrix(-1 0 0 1 21.1895 0.121399)" fill="#0E3F36"/>
<rect width="4.245" height="4.245" transform="matrix(-1 0 0 1 25.4351 0.121399)" fill="#0E3F36"/>
<rect width="4.245" height="4.245" transform="matrix(-1 0 0 1 29.6806 0.121399)" fill="#0E3F36"/>
<rect width="4.245" height="4.245" transform="matrix(-1 0 0 1 33.9261 4.36639)" fill="#0E3F36"/>
<rect width="4.245" height="4.245" transform="matrix(-1 0 0 1 38.1685 8.61145)" fill="#0E3F36"/>
<rect width="4.245" height="4.245" transform="matrix(-1 0 0 1 42.4144 12.8565)" fill="#0E3F36"/>
<rect width="4.245" height="4.245" transform="matrix(-1 0 0 1 46.6614 17.1014)" fill="#0E3F36"/>
<rect width="4.245" height="4.245" transform="matrix(-1 0 0 1 50.9052 21.3464)" fill="#0E3F36"/>
<rect width="4.245" height="4.245" transform="matrix(-1 0 0 1 55.1492 25.5914)" fill="#0E3F36"/>
<rect width="4.245" height="4.245" transform="matrix(-1 0 0 1 59.3948 29.8364)" fill="#0E3F36"/>
<rect width="4.245" height="4.245" transform="matrix(-1 0 0 1 63.6403 38.3264)" fill="#1E8A77"/>
<rect width="4.245" height="4.245" transform="matrix(-1 0 0 1 67.8841 38.3264)" fill="#1E8A77"/>
<rect width="4.245" height="4.245" transform="matrix(-1 0 0 1 67.8841 34.0814)" fill="#1E8A77"/>
<rect width="4.245" height="4.245" transform="matrix(-1 0 0 1 67.8841 29.8364)" fill="#0E3F36"/>
<rect width="4.245" height="4.245" transform="matrix(-1 0 0 1 72.1296 29.8364)" fill="#156355"/>
<rect width="4.245" height="4.245" transform="matrix(-1 0 0 1 72.1296 25.5914)" fill="#0E3F36"/>
<rect width="4.245" height="4.245" transform="matrix(-1 0 0 1 76.3752 25.5914)" fill="#0E3F36"/>
<rect width="4.245" height="4.245" transform="matrix(-1 0 0 1 76.3752 29.8364)" fill="#0E3F36"/>
<rect width="4.245" height="4.245" transform="matrix(-1 0 0 1 72.1296 34.0814)" fill="#0E3F36"/>
<rect width="4.245" height="4.245" transform="matrix(-1 0 0 1 72.1296 38.3264)" fill="#0E3F36"/>
<rect width="4.245" height="4.245" transform="matrix(-1 0 0 1 55.1492 38.3264)" fill="#33EBCB"/>
<rect width="4.245" height="4.245" transform="matrix(-1 0 0 1 59.3948 38.3264)" fill="#156355"/>
<rect width="4.245" height="4.245" transform="matrix(-1 0 0 1 59.3948 34.0814)" fill="#33EBCB"/>
<rect width="4.245" height="4.245" transform="matrix(-1 0 0 1 55.1492 34.0814)" fill="#156355"/>
<rect width="4.245" height="4.245" transform="matrix(-1 0 0 1 50.9052 34.0814)" fill="#33EBCB"/>
<rect width="4.245" height="4.245" transform="matrix(-1 0 0 1 50.9052 29.8364)" fill="#2BC7AC"/>
<rect width="4.245" height="4.245" transform="matrix(-1 0 0 1 50.9052 25.5914)" fill="#33EBCB"/>
<rect width="4.245" height="4.245" transform="matrix(-1 0 0 1 55.1492 29.8364)" fill="#33EBCB"/>
<rect width="4.245" height="4.245" transform="matrix(-1 0 0 1 46.6614 29.8364)" fill="#33EBCB"/>
<rect width="4.245" height="4.245" transform="matrix(-1 0 0 1 46.6614 25.5914)" fill="#2BC7AC"/>
<rect width="4.245" height="4.245" transform="matrix(-1 0 0 1 46.6614 21.3464)" fill="#A4FDF0"/>
<rect width="4.245" height="4.245" transform="matrix(-1 0 0 1 42.4144 17.1014)" fill="#A4FDF0"/>
<rect width="4.245" height="4.245" transform="matrix(-1 0 0 1 38.1685 17.1014)" fill="#2BC7AC"/>
<rect width="4.245" height="4.245" transform="matrix(-1 0 0 1 38.1685 12.8565)" fill="#A4FDF0"/>
<rect width="4.245" height="4.245" transform="matrix(-1 0 0 1 33.9261 12.8565)" fill="#2BC7AC"/>
<rect width="4.245" height="4.245" transform="matrix(-1 0 0 1 33.9261 8.61145)" fill="#A4FDF0"/>
<rect width="4.245" height="4.245" transform="matrix(-1 0 0 1 29.6806 8.61145)" fill="#2BC7AC"/>
<rect width="4.245" height="4.245" transform="matrix(-1 0 0 1 29.6806 4.36639)" fill="#A4FDF0"/>
<rect width="4.245" height="4.245" transform="matrix(-1 0 0 1 25.4351 4.36639)" fill="#A4FDF0"/>
<rect width="4.245" height="4.245" transform="matrix(-1 0 0 1 25.4351 8.61145)" fill="#A4FDF0"/>
<rect width="4.245" height="4.245" transform="matrix(-1 0 0 1 29.6806 12.8565)" fill="#A4FDF0"/>
<rect width="4.245" height="4.245" transform="matrix(-1 0 0 1 33.9261 17.1014)" fill="#33EBCB"/>
<rect width="4.245" height="4.245" transform="matrix(-1 0 0 1 38.1685 21.3464)" fill="#33EBCB"/>
<rect width="4.245" height="4.245" transform="matrix(-1 0 0 1 63.6403 34.0814)" fill="#082520"/>
<rect width="4.245" height="4.245" transform="matrix(-1 0 0 1 42.4144 25.5914)" fill="#33EBCB"/>
<rect width="4.245" height="4.245" transform="matrix(-1 0 0 1 42.4144 21.3464)" fill="#2BC7AC"/>
<rect width="4.245" height="4.245" transform="matrix(-1 0 0 1 59.3948 51.0614)" fill="#082520"/>
<rect width="4.245" height="4.245" transform="matrix(-1 0 0 1 63.6403 46.8165)" fill="#082520"/>
<rect width="4.245" height="4.245" transform="matrix(-1 0 0 1 67.8841 46.8165)" fill="#684E1E"/>
<rect width="4.245" height="4.245" transform="matrix(-1 0 0 1 72.1296 55.3065)" fill="#281E0B"/>
<rect width="4.245" height="4.245" transform="matrix(-1 0 0 1 76.3752 51.0614)" fill="#493615"/>
<rect width="4.245" height="4.245" transform="matrix(-1 0 0 1 80.6193 55.3065)" fill="#0E3F36"/>
<rect width="4.245" height="4.245" transform="matrix(-1 0 0 1 84.8649 55.3065)" fill="#0E3F36"/>
</svg>
