<svg width="108" height="23" viewBox="0 0 108 23" fill="none" xmlns="http://www.w3.org/2000/svg">
<path d="M7.25 14.0781C6.02083 14.0781 4.90104 13.776 3.89062 13.1719C2.88021 12.5677 2.07292 11.7604 1.46875 10.75C0.864583 9.73958 0.5625 8.61458 0.5625 7.375C0.5625 6.14583 0.864583 5.02604 1.46875 4.01562C2.07292 3.00521 2.88021 2.19792 3.89062 1.59375C4.90104 0.989583 6.02083 0.6875 7.25 0.6875H20.2656V5.15625H7.25C6.63542 5.15625 6.10938 5.375 5.67188 5.8125C5.24479 6.23958 5.03125 6.76042 5.03125 7.375C5.03125 8 5.24479 8.53125 5.67188 8.96875C6.10938 9.39583 6.63542 9.60938 7.25 9.60938H14.3281C15.5573 9.60938 16.6771 9.91146 17.6875 10.5156C18.6979 11.1198 19.5052 11.9323 20.1094 12.9531C20.7135 13.9635 21.0156 15.0833 21.0156 16.3125C21.0156 17.5417 20.7135 18.6615 20.1094 19.6719C19.5052 20.6823 18.6979 21.4896 17.6875 22.0938C16.6771 22.6979 15.5573 23 14.3281 23H0.9375V18.5312H14.3281C14.9427 18.5312 15.4635 18.3177 15.8906 17.8906C16.3281 17.4531 16.5469 16.9271 16.5469 16.3125C16.5469 15.6979 16.3281 15.1719 15.8906 14.7344C15.4635 14.2969 14.9427 14.0781 14.3281 14.0781H7.25ZM28.625 0.6875V23H24.1562V0.6875H28.625ZM51.8281 8.875C51.8281 10.2604 51.4479 11.5052 50.6875 12.6094C49.9271 13.7135 48.9323 14.526 47.7031 15.0469L51.5625 23H46.6094L43 15.5625H36.2188V23H31.75V13.3281C31.75 12.7135 31.9688 12.1875 32.4062 11.75C32.8438 11.3125 33.3698 11.0938 33.9844 11.0938H45.1406C45.7552 11.0938 46.2812 10.8802 46.7188 10.4531C47.1562 10.0156 47.375 9.48958 47.375 8.875V7.375C47.375 6.76042 47.1562 6.23958 46.7188 5.8125C46.2812 5.375 45.7552 5.15625 45.1406 5.15625H31.75V0.6875H45.1406C46.3698 0.6875 47.4896 0.989583 48.5 1.59375C49.5104 2.19792 50.3177 3.00521 50.9219 4.01562C51.526 5.02604 51.8281 6.14583 51.8281 7.375V8.875ZM59.4375 0.6875V23H54.9688V0.6875H59.4375ZM71.4844 23C69.099 23 66.9948 22.1302 65.1719 20.3906C63.4323 18.5677 62.5625 16.4635 62.5625 14.0781V0.6875H67.0312V14.0781C67.0312 15.3073 67.4635 16.3594 68.3281 17.2344C69.2031 18.099 70.2552 18.5312 71.4844 18.5312H74.5781C75.8073 18.5312 76.8542 18.099 77.7188 17.2344C78.5938 16.3594 79.0312 15.3073 79.0312 14.0781V0.6875H83.5V14.0781C83.5 16.4635 82.6302 18.5677 80.8906 20.3906C79.0677 22.1302 76.9635 23 74.5781 23H71.4844ZM93.3125 14.0781C92.0833 14.0781 90.9635 13.776 89.9531 13.1719C88.9427 12.5677 88.1354 11.7604 87.5312 10.75C86.9271 9.73958 86.625 8.61458 86.625 7.375C86.625 6.14583 86.9271 5.02604 87.5312 4.01562C88.1354 3.00521 88.9427 2.19792 89.9531 1.59375C90.9635 0.989583 92.0833 0.6875 93.3125 0.6875H106.328V5.15625H93.3125C92.6979 5.15625 92.1719 5.375 91.7344 5.8125C91.3073 6.23958 91.0938 6.76042 91.0938 7.375C91.0938 8 91.3073 8.53125 91.7344 8.96875C92.1719 9.39583 92.6979 9.60938 93.3125 9.60938H100.391C101.62 9.60938 102.74 9.91146 103.75 10.5156C104.76 11.1198 105.568 11.9323 106.172 12.9531C106.776 13.9635 107.078 15.0833 107.078 16.3125C107.078 17.5417 106.776 18.6615 106.172 19.6719C105.568 20.6823 104.76 21.4896 103.75 22.0938C102.74 22.6979 101.62 23 100.391 23H87V18.5312H100.391C101.005 18.5312 101.526 18.3177 101.953 17.8906C102.391 17.4531 102.609 16.9271 102.609 16.3125C102.609 15.6979 102.391 15.1719 101.953 14.7344C101.526 14.2969 101.005 14.0781 100.391 14.0781H93.3125Z" fill="#121212"/>
<path d="M7.25 14.0781C6.02083 14.0781 4.90104 13.776 3.89062 13.1719C2.88021 12.5677 2.07292 11.7604 1.46875 10.75C0.864583 9.73958 0.5625 8.61458 0.5625 7.375C0.5625 6.14583 0.864583 5.02604 1.46875 4.01562C2.07292 3.00521 2.88021 2.19792 3.89062 1.59375C4.90104 0.989583 6.02083 0.6875 7.25 0.6875H20.2656V5.15625H7.25C6.63542 5.15625 6.10938 5.375 5.67188 5.8125C5.24479 6.23958 5.03125 6.76042 5.03125 7.375C5.03125 8 5.24479 8.53125 5.67188 8.96875C6.10938 9.39583 6.63542 9.60938 7.25 9.60938H14.3281C15.5573 9.60938 16.6771 9.91146 17.6875 10.5156C18.6979 11.1198 19.5052 11.9323 20.1094 12.9531C20.7135 13.9635 21.0156 15.0833 21.0156 16.3125C21.0156 17.5417 20.7135 18.6615 20.1094 19.6719C19.5052 20.6823 18.6979 21.4896 17.6875 22.0938C16.6771 22.6979 15.5573 23 14.3281 23H0.9375V18.5312H14.3281C14.9427 18.5312 15.4635 18.3177 15.8906 17.8906C16.3281 17.4531 16.5469 16.9271 16.5469 16.3125C16.5469 15.6979 16.3281 15.1719 15.8906 14.7344C15.4635 14.2969 14.9427 14.0781 14.3281 14.0781H7.25ZM28.625 0.6875V23H24.1562V0.6875H28.625ZM51.8281 8.875C51.8281 10.2604 51.4479 11.5052 50.6875 12.6094C49.9271 13.7135 48.9323 14.526 47.7031 15.0469L51.5625 23H46.6094L43 15.5625H36.2188V23H31.75V13.3281C31.75 12.7135 31.9688 12.1875 32.4062 11.75C32.8438 11.3125 33.3698 11.0938 33.9844 11.0938H45.1406C45.7552 11.0938 46.2812 10.8802 46.7188 10.4531C47.1562 10.0156 47.375 9.48958 47.375 8.875V7.375C47.375 6.76042 47.1562 6.23958 46.7188 5.8125C46.2812 5.375 45.7552 5.15625 45.1406 5.15625H31.75V0.6875H45.1406C46.3698 0.6875 47.4896 0.989583 48.5 1.59375C49.5104 2.19792 50.3177 3.00521 50.9219 4.01562C51.526 5.02604 51.8281 6.14583 51.8281 7.375V8.875ZM59.4375 0.6875V23H54.9688V0.6875H59.4375ZM71.4844 23C69.099 23 66.9948 22.1302 65.1719 20.3906C63.4323 18.5677 62.5625 16.4635 62.5625 14.0781V0.6875H67.0312V14.0781C67.0312 15.3073 67.4635 16.3594 68.3281 17.2344C69.2031 18.099 70.2552 18.5312 71.4844 18.5312H74.5781C75.8073 18.5312 76.8542 18.099 77.7188 17.2344C78.5938 16.3594 79.0312 15.3073 79.0312 14.0781V0.6875H83.5V14.0781C83.5 16.4635 82.6302 18.5677 80.8906 20.3906C79.0677 22.1302 76.9635 23 74.5781 23H71.4844ZM93.3125 14.0781C92.0833 14.0781 90.9635 13.776 89.9531 13.1719C88.9427 12.5677 88.1354 11.7604 87.5312 10.75C86.9271 9.73958 86.625 8.61458 86.625 7.375C86.625 6.14583 86.9271 5.02604 87.5312 4.01562C88.1354 3.00521 88.9427 2.19792 89.9531 1.59375C90.9635 0.989583 92.0833 0.6875 93.3125 0.6875H106.328V5.15625H93.3125C92.6979 5.15625 92.1719 5.375 91.7344 5.8125C91.3073 6.23958 91.0938 6.76042 91.0938 7.375C91.0938 8 91.3073 8.53125 91.7344 8.96875C92.1719 9.39583 92.6979 9.60938 93.3125 9.60938H100.391C101.62 9.60938 102.74 9.91146 103.75 10.5156C104.76 11.1198 105.568 11.9323 106.172 12.9531C106.776 13.9635 107.078 15.0833 107.078 16.3125C107.078 17.5417 106.776 18.6615 106.172 19.6719C105.568 20.6823 104.76 21.4896 103.75 22.0938C102.74 22.6979 101.62 23 100.391 23H87V18.5312H100.391C101.005 18.5312 101.526 18.3177 101.953 17.8906C102.391 17.4531 102.609 16.9271 102.609 16.3125C102.609 15.6979 102.391 15.1719 101.953 14.7344C101.526 14.2969 101.005 14.0781 100.391 14.0781H93.3125Z" fill="url(#paint0_linear_102_3387)"/>
<defs>
<linearGradient id="paint0_linear_102_3387" x1="87.5421" y1="-8.99999" x2="13.8562" y2="32.5102" gradientUnits="userSpaceOnUse">
<stop stop-color="#AB0ABD"/>
<stop offset="1" stop-color="#00E0FF"/>
</linearGradient>
</defs>
</svg>
